{"glyphs":{"0":{"ha":1104,"x_min":0,"x_max":0,"o":"m 1035 -279 l 1035 669 l 814 669 l 814 -17 b 379 251 529 81 396 232 l 379 721 l 1035 721 l 1035 942 l 0 942 l 0 721 l 157 721 l 157 146 l 164 146 l 160 143 b 814 -244 374 -86 651 -196 l 814 -279 z "},"1":{"ha":579,"x_min":0,"x_max":0,"o":"m 269 -275 b 510 757 269 -275 510 110 b 503 943 510 817 507 879 l 276 943 b 288 739 276 943 288 864 b 113 -78 288 539 260 222 z m 226 722 l 226 943 l 0 943 l 0 722 z "},"2":{"ha":1000,"x_min":0,"x_max":0,"o":"m 931 -275 l 931 -53 l 0 -53 l 0 -275 z m 240 -19 b 708 410 240 -19 343 317 l 708 297 l 931 297 l 931 943 l 0 943 l 0 722 l 708 722 l 708 643 b 6 72 567 610 196 486 z "},"3":{"ha":1000,"x_min":0,"x_max":0,"o":"m 931 -275 l 931 -53 l 928 -53 l 931 -50 l 482 339 b 710 436 544 381 619 417 l 710 379 l 931 379 l 931 943 l 0 943 l 0 722 l 710 722 l 710 668 b 47 185 538 638 246 532 l 250 76 b 319 188 250 76 272 125 l 597 -53 l 0 -53 l 0 -275 z "},"4":{"ha":1049,"x_min":0,"x_max":0,"o":"m 568 -275 b 776 353 568 -275 710 -47 l 979 353 l 979 574 l 801 574 b 808 758 806 633 808 694 b 801 943 808 818 806 879 l 575 943 b 586 735 575 943 586 863 b 581 574 586 688 585 633 l 225 574 l 225 943 l 0 943 l 0 353 l 551 353 b 411 -78 526 215 482 67 z "},"5":{"ha":1000,"x_min":0,"x_max":0,"o":"m 690 -18 l 924 72 b 222 643 735 488 364 611 l 222 722 l 931 722 l 931 944 l 0 944 l 0 299 l 222 299 l 222 411 b 690 -18 588 317 690 -18 z m 931 -275 l 931 -53 l 0 -53 l 0 -275 z "},"6":{"ha":1000,"x_min":0,"x_max":0,"o":"m 931 -275 l 931 -54 l 221 -54 l 221 411 b 689 -18 586 317 689 -18 l 924 72 b 221 643 735 488 363 610 l 221 722 l 931 722 l 931 944 l 0 944 l 0 -275 z "},"7":{"ha":1036,"x_min":0,"x_max":0,"o":"m 810 -275 l 967 -78 b 804 694 818 115 804 526 l 804 722 l 967 722 l 967 943 l 0 943 l 0 722 l 578 722 l 576 626 b 810 -275 576 -17 810 -275 z "},"8":{"ha":1000,"x_min":0,"x_max":0,"o":"m 931 -275 l 931 -54 l 919 -54 l 931 -50 b 222 572 746 429 308 551 l 222 722 l 710 722 l 710 354 l 931 354 l 931 944 l 0 944 l 0 -275 z m 665 -54 l 222 -54 l 222 338 b 665 -54 496 261 618 56 z "},"9":{"ha":1000,"x_min":0,"x_max":0,"o":"m 931 -275 l 931 944 l 0 944 l 0 722 l 710 722 l 710 258 b 242 688 344 351 242 688 l 7 597 b 710 25 196 182 567 58 l 710 -54 l 0 -54 l 0 -275 z "},"\u0000":{"ha":694,"x_min":0,"x_max":0,"o":""}," ":{"ha":706,"x_min":0,"x_max":0,"o":""},"A":{"ha":1350,"x_min":0,"x_max":0,"o":"m 1196 -275 l 1281 -71 b 832 596 1281 -71 993 51 l 1078 596 l 1078 817 l 778 817 l 757 942 l 524 942 b 503 817 518 899 511 857 l 200 817 l 200 596 l 450 596 b 0 -71 288 51 0 -71 l 85 -275 b 640 465 368 -178 540 167 b 1196 -275 740 167 913 -178 z m 753 -92 l 753 131 l 526 131 l 526 -92 z "},"B":{"ha":1233,"x_min":0,"x_max":0,"o":"m 594 -275 b 1156 18 840 -37 1156 18 l 1153 19 l 1164 19 l 1164 444 l 878 444 l 878 942 l 0 942 l 0 721 l 657 721 l 657 444 l 378 444 l 378 671 l 156 671 l 156 -275 l 378 -275 l 378 222 l 942 222 l 942 168 b 439 -108 649 101 439 -108 z "},"C":{"ha":1104,"x_min":0,"x_max":0,"o":"m 947 -278 l 999 -65 b 378 251 585 15 397 228 l 378 721 l 1035 721 l 1035 942 l 0 942 l 0 721 l 157 721 l 157 146 l 164 146 l 158 143 b 947 -278 481 -201 947 -278 z m 1035 444 l 1035 667 l 807 667 l 807 444 z "},"D":{"ha":1204,"x_min":0,"x_max":0,"o":"m 386 -275 l 386 671 l 165 671 l 165 -275 z m 565 -275 b 1126 18 811 -37 1126 18 l 1124 19 l 1135 19 l 1135 942 l 0 942 l 0 721 l 913 721 l 913 168 b 431 -89 621 101 431 -89 z "},"E":{"ha":1104,"x_min":0,"x_max":0,"o":"m 947 -276 l 1000 -64 b 379 253 585 17 399 229 l 379 721 l 1035 721 l 1035 943 l 0 943 l 0 721 l 157 721 l 157 147 l 164 147 l 158 144 b 947 -276 482 -200 947 -276 z m 914 333 l 914 556 l 426 556 l 426 333 z "},"F":{"ha":1104,"x_min":0,"x_max":0,"o":"m 157 -278 b 392 625 157 -278 392 -18 l 390 721 l 1035 721 l 1035 943 l 0 943 l 0 721 l 163 721 l 163 679 b 0 -81 163 501 144 107 z m 932 333 l 932 556 l 444 556 l 444 333 z "},"G":{"ha":1104,"x_min":0,"x_max":0,"o":"m 1035 -278 l 1035 386 l 813 386 l 813 -15 b 378 253 528 81 394 233 l 378 721 l 1035 721 l 1035 943 l 0 943 l 0 721 l 157 721 l 157 147 l 164 147 l 158 144 b 813 -243 372 -85 650 -194 l 813 -278 z m 761 165 l 761 386 l 535 386 l 535 165 z "},"H":{"ha":1171,"x_min":0,"x_max":0,"o":"m 157 -278 b 397 756 157 -278 397 107 b 390 942 397 815 394 878 l 164 942 b 175 736 164 942 175 863 b 0 -81 175 538 147 219 z m 1100 -278 l 1100 556 l 443 556 l 443 333 l 878 333 l 878 -278 z m 1101 610 l 1101 943 l 875 943 l 875 610 z "},"I":{"ha":561,"x_min":0,"x_max":0,"o":"m 157 -278 b 392 626 157 -278 392 -18 l 390 722 l 492 722 l 492 944 l 57 944 l 57 722 l 164 722 l 164 697 b 0 -81 164 529 149 114 z "},"J":{"ha":1021,"x_min":0,"x_max":0,"o":"m 54 -276 b 844 144 54 -276 521 -200 l 839 147 l 846 147 l 846 722 l 951 722 l 951 944 l 518 944 l 518 722 l 624 722 l 624 253 b 3 -64 604 229 417 17 z m 226 43 l 226 376 l 0 376 l 0 43 z "},"K":{"ha":1172,"x_min":0,"x_max":0,"o":"m 157 -278 b 399 757 157 -278 399 108 b 392 943 399 817 396 879 l 165 943 b 176 739 165 943 176 864 b 0 -81 176 539 149 221 z m 894 -276 l 1103 -151 b 810 333 1103 -151 1018 122 l 1103 333 l 1103 815 l 876 815 l 876 556 l 444 556 l 444 333 l 447 333 b 894 -276 447 333 732 211 z "},"L":{"ha":1104,"x_min":0,"x_max":0,"o":"m 1035 -278 l 1035 -56 l 390 -56 l 392 40 b 157 943 392 683 157 943 l 0 746 b 163 -14 144 558 163 164 l 163 -56 l 0 -56 l 0 -278 z m 1035 -3 l 1035 219 l 808 219 l 808 -3 z "},"M":{"ha":1433,"x_min":0,"x_max":0,"o":"m 157 -278 b 397 722 157 -278 389 93 l 967 722 b 1207 -276 975 94 1207 -276 l 1364 -79 b 1189 722 1221 213 1190 521 l 1338 722 l 1338 944 l 22 944 l 22 722 l 176 722 b 0 -81 175 521 144 213 z m 793 189 l 793 669 l 567 669 l 567 189 z "},"N":{"ha":1290,"x_min":0,"x_max":0,"o":"m 158 -279 b 397 721 158 -279 389 93 l 497 721 l 497 -1 l 724 -1 l 724 943 l 22 943 l 22 721 l 176 721 b 0 -82 175 521 144 211 z m 1200 -276 l 1200 -56 l 1046 -56 b 1221 747 1047 146 1078 456 l 1064 944 b 824 -56 1064 944 832 574 l 497 -56 l 497 -276 z "},"O":{"ha":1104,"x_min":0,"x_max":0,"o":"m 1035 -279 l 1035 669 l 814 669 l 814 -17 b 379 251 529 81 396 232 l 379 721 l 1035 721 l 1035 942 l 0 942 l 0 721 l 157 721 l 157 146 l 164 146 l 160 143 b 814 -244 374 -86 651 -196 l 814 -279 z "},"P":{"ha":1104,"x_min":0,"x_max":0,"o":"m 157 -279 b 392 629 157 -279 392 -19 l 390 721 l 813 721 l 813 554 l 443 554 l 443 332 l 813 332 l 813 254 l 1035 254 l 1035 943 l 0 943 l 0 721 l 163 721 l 163 693 b 0 -82 163 524 149 113 z "},"Q":{"ha":1104,"x_min":0,"x_max":0,"o":"m 378 -278 l 379 -244 b 683 -121 460 -221 568 -182 l 818 -267 l 981 -117 l 874 0 b 1033 143 929 42 983 89 l 1028 146 l 1035 146 l 1035 942 l 0 942 l 0 721 l 814 721 l 814 251 b 722 165 806 243 776 208 l 650 243 l 488 93 l 531 46 b 379 -17 486 24 435 3 l 379 669 l 157 669 l 156 -278 z "},"R":{"ha":1104,"x_min":0,"x_max":0,"o":"m 157 -278 b 392 626 157 -278 392 -18 l 390 722 l 813 722 l 813 556 l 443 556 b 440 497 443 556 440 533 b 867 -275 440 344 479 -65 l 1035 -117 b 690 335 1035 -117 726 26 l 813 335 l 813 256 l 1035 256 l 1035 944 l 0 944 l 0 722 l 163 722 l 163 679 b 0 -81 163 503 144 108 z "},"S":{"ha":1104,"x_min":0,"x_max":0,"o":"m 1035 29 l 1035 556 l 379 556 l 379 722 l 1035 722 l 1035 944 l 0 944 l 0 722 l 157 722 l 157 335 l 813 335 l 813 29 z m 947 -276 l 1000 -62 b 376 256 561 21 376 256 l 158 144 b 947 -276 482 -200 947 -276 z "},"T":{"ha":1104,"x_min":0,"x_max":0,"o":"m 404 -278 b 639 626 404 -278 639 -18 l 638 722 l 1035 722 l 1035 944 l 0 944 l 0 722 l 410 722 l 410 679 b 247 -81 410 503 392 108 z "},"U":{"ha":1071,"x_min":0,"x_max":0,"o":"m 792 -276 l 843 -62 b 222 253 429 17 242 231 l 222 944 l 0 944 l 0 147 l 7 147 l 3 144 b 792 -276 325 -200 792 -276 z m 868 25 l 868 722 l 1001 722 l 1001 944 l 513 944 l 513 722 l 646 722 l 646 25 z "},"V":{"ha":1351,"x_min":0,"x_max":0,"o":"m 758 -275 b 779 -150 764 -232 771 -190 l 1081 -150 l 1081 72 l 832 72 b 1282 738 994 617 1282 738 l 1197 943 b 642 203 914 846 740 500 b 85 943 542 500 368 846 l 0 738 b 450 72 0 738 288 617 l 203 72 l 203 -150 l 503 -150 b 524 -275 511 -190 518 -232 z "},"W":{"ha":1433,"x_min":0,"x_max":0,"o":"m 1338 -276 l 1338 -56 l 1189 -56 b 1364 746 1190 146 1221 454 l 1207 943 b 967 -56 1207 943 975 572 l 397 -56 b 157 944 389 574 157 944 l 0 749 b 175 -56 143 456 174 146 l 22 -56 l 22 -276 z m 793 -3 l 793 479 l 567 479 l 567 -3 z "},"X":{"ha":1196,"x_min":0,"x_max":0,"o":"m 689 -218 l 921 -193 b 647 474 921 -193 832 158 b 1126 721 904 710 1126 721 l 1119 943 l 1103 943 b 526 654 894 943 694 814 b 121 944 415 796 281 908 l 58 732 b 367 485 58 732 204 689 b 58 44 178 263 58 44 l 297 -3 b 489 300 358 117 424 217 b 689 -218 563 169 633 0 z m 349 -276 l 349 -56 l 0 -56 l 0 -276 z "},"Y":{"ha":972,"x_min":0,"x_max":0,"o":"m 342 -275 b 549 382 486 -46 535 208 l 903 382 l 903 943 l 676 943 l 676 604 l 0 604 l 0 382 l 331 382 b 179 -92 304 72 179 -92 z m 226 663 l 226 944 l 0 944 l 0 663 z "},"Z":{"ha":1001,"x_min":0,"x_max":0,"o":"m 242 -19 b 932 724 242 -19 338 435 l 932 944 l 0 944 l 0 724 l 493 724 b 6 71 321 586 124 374 z m 932 -275 l 932 -54 l 0 -54 l 0 -275 z m 932 -7 l 932 203 l 706 203 l 706 -7 z "},"a":{"ha":1350,"x_min":0,"x_max":0,"o":"m 1196 -275 l 1281 -71 b 832 596 1281 -71 993 51 l 1078 596 l 1078 817 l 778 817 l 757 942 l 524 942 b 503 817 518 899 511 857 l 200 817 l 200 596 l 450 596 b 0 -71 288 51 0 -71 l 85 -275 b 640 465 368 -178 540 167 b 1196 -275 740 167 913 -178 z m 753 -92 l 753 131 l 526 131 l 526 -92 z "},"b":{"ha":1233,"x_min":0,"x_max":0,"o":"m 594 -275 b 1156 18 840 -37 1156 18 l 1153 19 l 1164 19 l 1164 444 l 878 444 l 878 942 l 0 942 l 0 721 l 657 721 l 657 444 l 378 444 l 378 671 l 156 671 l 156 -275 l 378 -275 l 378 222 l 942 222 l 942 168 b 439 -108 649 101 439 -108 z "},"c":{"ha":1104,"x_min":0,"x_max":0,"o":"m 947 -278 l 999 -65 b 378 251 585 15 397 228 l 378 721 l 1035 721 l 1035 942 l 0 942 l 0 721 l 157 721 l 157 146 l 164 146 l 158 143 b 947 -278 481 -201 947 -278 z m 1035 444 l 1035 667 l 807 667 l 807 444 z "},"d":{"ha":1204,"x_min":0,"x_max":0,"o":"m 386 -275 l 386 671 l 165 671 l 165 -275 z m 565 -275 b 1126 18 811 -37 1126 18 l 1124 19 l 1135 19 l 1135 942 l 0 942 l 0 721 l 913 721 l 913 168 b 431 -89 621 101 431 -89 z "},"e":{"ha":1104,"x_min":0,"x_max":0,"o":"m 947 -276 l 1000 -64 b 379 253 585 17 399 229 l 379 721 l 1035 721 l 1035 943 l 0 943 l 0 721 l 157 721 l 157 147 l 164 147 l 158 144 b 947 -276 482 -200 947 -276 z m 914 333 l 914 556 l 426 556 l 426 333 z "},"f":{"ha":1104,"x_min":0,"x_max":0,"o":"m 157 -278 b 392 625 157 -278 392 -18 l 390 721 l 1035 721 l 1035 943 l 0 943 l 0 721 l 163 721 l 163 679 b 0 -81 163 501 144 107 z m 932 333 l 932 556 l 444 556 l 444 333 z "},"g":{"ha":1104,"x_min":0,"x_max":0,"o":"m 1035 -278 l 1035 386 l 813 386 l 813 -15 b 378 253 528 81 394 233 l 378 721 l 1035 721 l 1035 943 l 0 943 l 0 721 l 157 721 l 157 147 l 164 147 l 158 144 b 813 -243 372 -85 650 -194 l 813 -278 z m 761 165 l 761 386 l 535 386 l 535 165 z "},"h":{"ha":1171,"x_min":0,"x_max":0,"o":"m 157 -278 b 397 756 157 -278 397 107 b 390 942 397 815 394 878 l 164 942 b 175 736 164 942 175 863 b 0 -81 175 538 147 219 z m 1100 -278 l 1100 556 l 443 556 l 443 333 l 878 333 l 878 -278 z m 1101 610 l 1101 943 l 875 943 l 875 610 z "},"i":{"ha":561,"x_min":0,"x_max":0,"o":"m 157 -278 b 392 626 157 -278 392 -18 l 390 722 l 492 722 l 492 944 l 57 944 l 57 722 l 164 722 l 164 697 b 0 -81 164 529 149 114 z "},"j":{"ha":1021,"x_min":0,"x_max":0,"o":"m 54 -276 b 844 144 54 -276 521 -200 l 839 147 l 846 147 l 846 722 l 951 722 l 951 944 l 518 944 l 518 722 l 624 722 l 624 253 b 3 -64 604 229 417 17 z m 226 43 l 226 376 l 0 376 l 0 43 z "},"k":{"ha":1172,"x_min":0,"x_max":0,"o":"m 157 -278 b 399 757 157 -278 399 108 b 392 943 399 817 396 879 l 165 943 b 176 739 165 943 176 864 b 0 -81 176 539 149 221 z m 894 -276 l 1103 -151 b 810 333 1103 -151 1018 122 l 1103 333 l 1103 815 l 876 815 l 876 556 l 444 556 l 444 333 l 447 333 b 894 -276 447 333 732 211 z "},"l":{"ha":1104,"x_min":0,"x_max":0,"o":"m 1035 -278 l 1035 -56 l 390 -56 l 392 40 b 157 943 392 683 157 943 l 0 746 b 163 -14 144 558 163 164 l 163 -56 l 0 -56 l 0 -278 z m 1035 -3 l 1035 219 l 808 219 l 808 -3 z "},"m":{"ha":1433,"x_min":0,"x_max":0,"o":"m 157 -278 b 397 722 157 -278 389 93 l 967 722 b 1207 -276 975 94 1207 -276 l 1364 -79 b 1189 722 1221 213 1190 521 l 1338 722 l 1338 944 l 22 944 l 22 722 l 176 722 b 0 -81 175 521 144 213 z m 793 189 l 793 669 l 567 669 l 567 189 z "},"n":{"ha":1290,"x_min":0,"x_max":0,"o":"m 158 -279 b 397 721 158 -279 389 93 l 497 721 l 497 -1 l 724 -1 l 724 943 l 22 943 l 22 721 l 176 721 b 0 -82 175 521 144 211 z m 1200 -276 l 1200 -56 l 1046 -56 b 1221 747 1047 146 1078 456 l 1064 944 b 824 -56 1064 944 832 574 l 497 -56 l 497 -276 z "},"o":{"ha":1104,"x_min":0,"x_max":0,"o":"m 1035 -279 l 1035 669 l 814 669 l 814 -17 b 379 251 529 81 396 232 l 379 721 l 1035 721 l 1035 942 l 0 942 l 0 721 l 157 721 l 157 146 l 164 146 l 160 143 b 814 -244 374 -86 651 -196 l 814 -279 z "},"p":{"ha":1104,"x_min":0,"x_max":0,"o":"m 157 -279 b 392 629 157 -279 392 -19 l 390 721 l 813 721 l 813 554 l 443 554 l 443 332 l 813 332 l 813 254 l 1035 254 l 1035 943 l 0 943 l 0 721 l 163 721 l 163 693 b 0 -82 163 524 149 113 z "},"q":{"ha":1104,"x_min":0,"x_max":0,"o":"m 378 -278 l 379 -244 b 683 -121 460 -221 568 -182 l 818 -267 l 981 -117 l 874 0 b 1033 143 929 42 983 89 l 1028 146 l 1035 146 l 1035 942 l 0 942 l 0 721 l 814 721 l 814 251 b 722 165 806 243 776 208 l 650 243 l 488 93 l 531 46 b 379 -17 486 24 435 3 l 379 669 l 157 669 l 156 -278 z "},"r":{"ha":1104,"x_min":0,"x_max":0,"o":"m 157 -278 b 392 626 157 -278 392 -18 l 390 722 l 813 722 l 813 556 l 443 556 b 440 497 443 556 440 533 b 867 -275 440 344 479 -65 l 1035 -117 b 690 335 1035 -117 726 26 l 813 335 l 813 256 l 1035 256 l 1035 944 l 0 944 l 0 722 l 163 722 l 163 679 b 0 -81 163 503 144 108 z "},"s":{"ha":1104,"x_min":0,"x_max":0,"o":"m 1035 29 l 1035 556 l 379 556 l 379 722 l 1035 722 l 1035 944 l 0 944 l 0 722 l 157 722 l 157 335 l 813 335 l 813 29 z m 947 -276 l 1000 -62 b 376 256 561 21 376 256 l 158 144 b 947 -276 482 -200 947 -276 z "},"t":{"ha":1104,"x_min":0,"x_max":0,"o":"m 404 -278 b 639 626 404 -278 639 -18 l 638 722 l 1035 722 l 1035 944 l 0 944 l 0 722 l 410 722 l 410 679 b 247 -81 410 503 392 108 z "},"u":{"ha":1071,"x_min":0,"x_max":0,"o":"m 792 -276 l 843 -62 b 222 253 429 17 242 231 l 222 944 l 0 944 l 0 147 l 7 147 l 3 144 b 792 -276 325 -200 792 -276 z m 868 25 l 868 722 l 1001 722 l 1001 944 l 513 944 l 513 722 l 646 722 l 646 25 z "},"v":{"ha":1351,"x_min":0,"x_max":0,"o":"m 758 -275 b 779 -150 764 -232 771 -190 l 1081 -150 l 1081 72 l 832 72 b 1282 738 994 617 1282 738 l 1197 943 b 642 203 914 846 740 500 b 85 943 542 500 368 846 l 0 738 b 450 72 0 738 288 617 l 203 72 l 203 -150 l 503 -150 b 524 -275 511 -190 518 -232 z "},"w":{"ha":1433,"x_min":0,"x_max":0,"o":"m 1338 -276 l 1338 -56 l 1189 -56 b 1364 746 1190 146 1221 454 l 1207 943 b 967 -56 1207 943 975 572 l 397 -56 b 157 944 389 574 157 944 l 0 749 b 175 -56 143 456 174 146 l 22 -56 l 22 -276 z m 793 -3 l 793 479 l 567 479 l 567 -3 z "},"x":{"ha":1196,"x_min":0,"x_max":0,"o":"m 689 -218 l 921 -193 b 647 474 921 -193 832 158 b 1126 721 904 710 1126 721 l 1119 943 l 1103 943 b 526 654 894 943 694 814 b 121 944 415 796 281 908 l 58 732 b 367 485 58 732 204 689 b 58 44 178 263 58 44 l 297 -3 b 489 300 358 117 424 217 b 689 -218 563 169 633 0 z m 349 -276 l 349 -56 l 0 -56 l 0 -276 z "},"y":{"ha":972,"x_min":0,"x_max":0,"o":"m 342 -275 b 549 382 486 -46 535 208 l 903 382 l 903 943 l 676 943 l 676 604 l 0 604 l 0 382 l 331 382 b 179 -92 304 72 179 -92 z m 226 663 l 226 944 l 0 944 l 0 663 z "},"z":{"ha":1001,"x_min":0,"x_max":0,"o":"m 242 -19 b 932 724 242 -19 338 435 l 932 944 l 0 944 l 0 724 l 493 724 b 6 71 321 586 124 374 z m 932 -275 l 932 -54 l 0 -54 l 0 -275 z m 932 -7 l 932 203 l 706 203 l 706 -7 z "},"À":{"ha":1350,"x_min":0,"x_max":0,"o":"m 1196 -275 l 1281 -71 b 832 596 1281 -71 993 51 l 1078 596 l 1078 817 l 778 817 l 757 942 l 524 942 b 503 817 518 899 511 857 l 200 817 l 200 596 l 450 596 b 0 -71 288 51 0 -71 l 85 -275 b 640 465 368 -178 540 167 b 1196 -275 740 167 913 -178 z m 753 -92 l 753 131 l 526 131 l 526 -92 z m 556 971 l 729 1060 l 576 1356 l 403 1265 z "},"Á":{"ha":1350,"x_min":0,"x_max":0,"o":"m 1196 -275 l 1281 -71 b 832 596 1281 -71 993 51 l 1078 596 l 1078 817 l 778 817 l 757 942 l 524 942 b 503 817 518 899 511 857 l 200 817 l 200 596 l 450 596 b 0 -71 288 51 0 -71 l 85 -275 b 640 465 368 -178 540 167 b 1196 -275 740 167 913 -178 z m 753 -92 l 753 131 l 526 131 l 526 -92 z m 725 971 l 878 1265 l 704 1356 l 553 1060 z "},"Â":{"ha":1350,"x_min":0,"x_max":0,"o":"m 1196 -275 l 1281 -71 b 832 596 1281 -71 993 51 l 1078 596 l 1078 817 l 778 817 l 757 942 l 524 942 b 503 817 518 899 511 857 l 200 817 l 200 596 l 450 596 b 0 -71 288 51 0 -71 l 85 -275 b 640 465 368 -178 540 167 b 1196 -275 740 167 913 -178 z m 753 -92 l 753 131 l 526 131 l 526 -92 z m 825 975 l 964 1088 l 788 1304 l 788 1308 l 517 1308 l 517 1303 l 510 1308 l 322 1088 l 460 975 l 592 1129 l 700 1129 z "},"Ã":{"ha":1350,"x_min":0,"x_max":0,"o":"m 1196 -275 l 1281 -71 b 832 596 1281 -71 993 51 l 1078 596 l 1078 817 l 778 817 l 757 942 l 524 942 b 503 817 518 899 511 857 l 200 817 l 200 596 l 450 596 b 0 -71 288 51 0 -71 l 85 -275 b 640 465 368 -178 540 167 b 1196 -275 740 167 913 -178 z m 753 -92 l 753 131 l 526 131 l 526 -92 z m 876 975 l 876 1196 l 756 1196 l 756 1096 l 697 1096 l 697 1276 l 397 1276 l 397 1060 l 518 1060 l 518 1156 l 576 1156 l 576 975 z "},"Ä":{"ha":1350,"x_min":0,"x_max":0,"o":"m 1196 -275 l 1281 -71 b 832 596 1281 -71 993 51 l 1078 596 l 1078 817 l 778 817 l 757 942 l 524 942 b 503 817 518 899 511 857 l 200 817 l 200 596 l 450 596 b 0 -71 288 51 0 -71 l 85 -275 b 640 465 368 -178 540 167 b 1196 -275 740 167 913 -178 z m 753 -92 l 753 131 l 526 131 l 526 -92 z m 396 976 l 619 976 l 619 1189 l 396 1189 z m 658 974 l 882 974 l 882 1186 l 658 1186 z "},"Å":{"ha":1350,"x_min":0,"x_max":0,"o":"m 1196 -275 l 1281 -71 b 832 596 1281 -71 993 51 l 1078 596 l 1078 817 l 778 817 l 757 942 l 524 942 b 503 817 518 899 511 857 l 200 817 l 200 596 l 450 596 b 0 -71 288 51 0 -71 l 85 -275 b 640 465 368 -178 540 167 b 1196 -275 740 167 913 -178 z m 753 -92 l 753 131 l 526 131 l 526 -92 z m 469 1288 l 469 975 l 797 975 l 797 1081 l 581 1081 l 581 1182 l 686 1182 l 686 1108 l 797 1108 l 797 1288 z "},"Æ":{"ha":1661,"x_min":0,"x_max":0,"o":"m 1196 -276 l 1281 -71 b 832 594 1281 -71 993 50 l 801 719 l 1592 719 l 1592 940 l 524 940 b 503 815 518 897 511 856 l 201 815 l 201 594 l 450 594 b 0 -71 288 50 0 -71 l 85 -276 b 640 464 368 -179 542 167 b 1196 -276 740 167 913 -179 z m 1472 331 l 1472 553 l 983 553 l 983 331 z m 753 -93 l 753 129 l 526 129 l 526 -93 z "},"Ç":{"ha":1104,"x_min":0,"x_max":0,"o":"m 650 -462 l 650 -200 l 478 -200 l 478 -101 b 947 -276 724 -239 947 -276 l 1000 -62 b 378 254 585 17 397 231 l 378 722 l 1035 722 l 1035 944 l 0 944 l 0 722 l 157 722 l 157 147 l 164 147 l 158 144 b 385 -44 229 69 307 7 l 385 -294 l 556 -294 l 556 -368 l 385 -368 l 385 -462 z m 1035 446 l 1035 668 l 808 668 l 808 446 z "},"È":{"ha":1104,"x_min":0,"x_max":0,"o":"m 947 -276 l 1000 -64 b 379 253 585 17 399 229 l 379 721 l 1035 721 l 1035 943 l 0 943 l 0 721 l 157 721 l 157 147 l 164 147 l 158 144 b 947 -276 482 -200 947 -276 z m 914 333 l 914 556 l 426 556 l 426 333 z m 556 971 l 729 1060 l 576 1356 l 403 1265 z "},"É":{"ha":1104,"x_min":0,"x_max":0,"o":"m 947 -276 l 1000 -64 b 379 253 585 17 399 229 l 379 721 l 1035 721 l 1035 943 l 0 943 l 0 721 l 157 721 l 157 147 l 164 147 l 158 144 b 947 -276 482 -200 947 -276 z m 914 333 l 914 556 l 426 556 l 426 333 z m 604 971 l 757 1265 l 583 1356 l 432 1060 z "},"Ê":{"ha":1104,"x_min":0,"x_max":0,"o":"m 947 -276 l 1000 -64 b 379 253 585 17 399 229 l 379 721 l 1035 721 l 1035 943 l 0 943 l 0 721 l 157 721 l 157 147 l 164 147 l 158 144 b 947 -276 482 -200 947 -276 z m 914 333 l 914 556 l 426 556 l 426 333 z m 735 978 l 874 1090 l 697 1307 l 697 1311 l 426 1311 l 426 1306 l 419 1311 l 232 1090 l 369 978 l 501 1132 l 610 1132 z "},"Ë":{"ha":1104,"x_min":0,"x_max":0,"o":"m 947 -276 l 1000 -64 b 379 253 585 17 399 229 l 379 721 l 1035 721 l 1035 943 l 0 943 l 0 721 l 157 721 l 157 147 l 164 147 l 158 144 b 947 -276 482 -200 947 -276 z m 914 333 l 914 556 l 426 556 l 426 333 z m 313 974 l 536 974 l 536 1186 l 313 1186 z m 575 971 l 799 971 l 799 1183 l 575 1183 z "},"Ì":{"ha":561,"x_min":0,"x_max":0,"o":"m 157 -278 b 392 626 157 -278 392 -18 l 390 722 l 492 722 l 492 944 l 57 944 l 57 722 l 164 722 l 164 697 b 0 -81 164 529 149 114 z m 263 975 l 436 1064 l 283 1360 l 110 1269 z "},"Í":{"ha":561,"x_min":0,"x_max":0,"o":"m 157 -278 b 392 626 157 -278 392 -18 l 390 722 l 492 722 l 492 944 l 57 944 l 57 722 l 164 722 l 164 697 b 0 -81 164 529 149 114 z m 279 979 l 432 1274 l 258 1364 l 107 1068 z "},"Î":{"ha":711,"x_min":0,"x_max":0,"o":"m 157 -278 b 392 626 157 -278 392 -18 l 390 722 l 492 722 l 492 944 l 57 944 l 57 722 l 164 722 l 164 697 b 0 -81 164 529 149 114 z m 461 982 l 600 1094 l 424 1311 l 424 1315 l 153 1315 l 153 1310 l 146 1315 l -42 1094 l 96 982 l 228 1136 l 336 1136 z "},"Ï":{"ha":586,"x_min":0,"x_max":0,"o":"m 157 -278 b 392 626 157 -278 392 -18 l 390 722 l 492 722 l 492 944 l 57 944 l 57 722 l 164 722 l 164 697 b 0 -81 164 529 149 114 z m 31 978 l 254 978 l 254 1190 l 31 1190 z m 293 975 l 517 975 l 517 1188 l 293 1188 z "},"Ð":{"ha":1204,"x_min":0,"x_max":0,"o":"m 567 -276 b 1126 17 813 -37 1126 17 l 1124 18 l 1135 18 l 1135 940 l 0 940 l 0 719 l 914 719 l 914 167 b 432 -90 621 101 432 -90 z m 388 -276 l 388 190 l 553 190 l 553 413 l 388 413 l 388 669 l 165 669 l 165 413 l 0 413 l 0 190 l 165 190 l 165 -276 z "},"Ñ":{"ha":1290,"x_min":0,"x_max":0,"o":"m 158 -279 b 397 721 158 -279 389 93 l 497 721 l 497 -1 l 724 -1 l 724 943 l 22 943 l 22 721 l 176 721 b 0 -82 175 521 144 211 z m 1200 -276 l 1200 -56 l 1046 -56 b 1221 747 1047 146 1078 456 l 1064 944 b 824 -56 1064 944 832 574 l 497 -56 l 497 -276 z m 876 975 l 876 1196 l 756 1196 l 756 1096 l 697 1096 l 697 1276 l 397 1276 l 397 1060 l 518 1060 l 518 1156 l 576 1156 l 576 975 z "},"Ò":{"ha":1104,"x_min":0,"x_max":0,"o":"m 1035 -279 l 1035 669 l 814 669 l 814 -17 b 379 251 529 81 396 232 l 379 721 l 1035 721 l 1035 942 l 0 942 l 0 721 l 157 721 l 157 146 l 164 146 l 160 143 b 814 -244 374 -86 651 -196 l 814 -279 z m 556 971 l 729 1060 l 576 1356 l 403 1265 z "},"Ó":{"ha":1104,"x_min":0,"x_max":0,"o":"m 1035 -279 l 1035 669 l 814 669 l 814 -17 b 379 251 529 81 396 232 l 379 721 l 1035 721 l 1035 942 l 0 942 l 0 721 l 157 721 l 157 146 l 164 146 l 160 143 b 814 -244 374 -86 651 -196 l 814 -279 z m 604 971 l 757 1265 l 583 1356 l 432 1060 z "},"Ô":{"ha":1104,"x_min":0,"x_max":0,"o":"m 1035 -279 l 1035 669 l 814 669 l 814 -17 b 379 251 529 81 396 232 l 379 721 l 1035 721 l 1035 942 l 0 942 l 0 721 l 157 721 l 157 146 l 164 146 l 160 143 b 814 -244 374 -86 651 -196 l 814 -279 z m 735 978 l 874 1090 l 697 1307 l 697 1311 l 426 1311 l 426 1306 l 419 1311 l 232 1090 l 369 978 l 501 1132 l 610 1132 z "},"Õ":{"ha":1104,"x_min":0,"x_max":0,"o":"m 1035 -279 l 1035 669 l 814 669 l 814 -17 b 379 251 529 81 396 232 l 379 721 l 1035 721 l 1035 942 l 0 942 l 0 721 l 157 721 l 157 146 l 164 146 l 160 143 b 814 -244 374 -86 651 -196 l 814 -279 z m 760 975 l 760 1196 l 639 1196 l 639 1096 l 581 1096 l 581 1276 l 281 1276 l 281 1060 l 401 1060 l 401 1156 l 460 1156 l 460 975 z "},"Ö":{"ha":1104,"x_min":0,"x_max":0,"o":"m 1035 -279 l 1035 669 l 814 669 l 814 -17 b 379 251 529 81 396 232 l 379 721 l 1035 721 l 1035 942 l 0 942 l 0 721 l 157 721 l 157 146 l 164 146 l 160 143 b 814 -244 374 -86 651 -196 l 814 -279 z m 276 975 l 500 975 l 500 1188 l 276 1188 z m 539 972 l 763 972 l 763 1185 l 539 1185 z "},"×":{"ha":776,"x_min":0,"x_max":0,"o":"m 707 586 l 551 717 l 354 481 l 156 717 l 0 586 l 221 321 l 0 57 l 156 -74 l 354 163 l 551 -74 l 707 57 l 486 321 z "},"Ø":{"ha":1104,"x_min":0,"x_max":0,"o":"m 461 -372 l 539 -139 b 813 -247 643 -190 740 -225 l 813 -282 l 1035 -282 l 1035 667 l 813 667 l 813 -19 b 379 249 528 78 396 229 l 379 717 l 1035 717 l 1035 939 l 868 939 l 926 1114 l 715 1183 l 635 939 l 0 939 l 0 717 l 157 717 l 157 143 l 164 143 l 160 140 b 344 -21 218 78 281 25 l 251 -303 z "},"Ù":{"ha":1071,"x_min":0,"x_max":0,"o":"m 792 -276 l 843 -62 b 222 253 429 17 242 231 l 222 944 l 0 944 l 0 147 l 7 147 l 3 144 b 792 -276 325 -200 792 -276 z m 868 25 l 868 722 l 1001 722 l 1001 944 l 513 944 l 513 722 l 646 722 l 646 25 z m 489 971 l 663 1060 l 510 1356 l 336 1265 z "},"Ú":{"ha":1071,"x_min":0,"x_max":0,"o":"m 792 -276 l 843 -62 b 222 253 429 17 242 231 l 222 944 l 0 944 l 0 147 l 7 147 l 3 144 b 792 -276 325 -200 792 -276 z m 868 25 l 868 722 l 1001 722 l 1001 944 l 513 944 l 513 722 l 646 722 l 646 25 z m 531 971 l 683 1265 l 510 1356 l 358 1060 z "},"Û":{"ha":1071,"x_min":0,"x_max":0,"o":"m 792 -276 l 843 -62 b 222 253 429 17 242 231 l 222 944 l 0 944 l 0 147 l 7 147 l 3 144 b 792 -276 325 -200 792 -276 z m 868 25 l 868 722 l 1001 722 l 1001 944 l 513 944 l 513 722 l 646 722 l 646 25 z m 688 975 l 826 1088 l 650 1304 l 650 1308 l 379 1308 l 379 1303 l 372 1308 l 185 1088 l 322 975 l 454 1129 l 563 1129 z "},"Ü":{"ha":1071,"x_min":0,"x_max":0,"o":"m 792 -276 l 843 -62 b 222 253 429 17 242 231 l 222 944 l 0 944 l 0 147 l 7 147 l 3 144 b 792 -276 325 -200 792 -276 z m 868 25 l 868 722 l 1001 722 l 1001 944 l 513 944 l 513 722 l 646 722 l 646 25 z m 276 975 l 500 975 l 500 1188 l 276 1188 z m 539 972 l 763 972 l 763 1185 l 539 1185 z "},"Ý":{"ha":972,"x_min":0,"x_max":0,"o":"m 342 -275 b 549 382 486 -46 535 208 l 903 382 l 903 943 l 676 943 l 676 604 l 0 604 l 0 382 l 331 382 b 179 -92 304 72 179 -92 z m 226 663 l 226 944 l 0 944 l 0 663 z m 492 971 l 644 1265 l 471 1356 l 319 1060 z "},"à":{"ha":1350,"x_min":0,"x_max":0,"o":"m 1196 -275 l 1281 -71 b 832 596 1281 -71 993 51 l 1078 596 l 1078 817 l 778 817 l 757 942 l 524 942 b 503 817 518 899 511 857 l 200 817 l 200 596 l 450 596 b 0 -71 288 51 0 -71 l 85 -275 b 640 465 368 -178 540 167 b 1196 -275 740 167 913 -178 z m 753 -92 l 753 131 l 526 131 l 526 -92 z m 556 971 l 729 1060 l 576 1356 l 403 1265 z "},"á":{"ha":1350,"x_min":0,"x_max":0,"o":"m 1196 -275 l 1281 -71 b 832 596 1281 -71 993 51 l 1078 596 l 1078 817 l 778 817 l 757 942 l 524 942 b 503 817 518 899 511 857 l 200 817 l 200 596 l 450 596 b 0 -71 288 51 0 -71 l 85 -275 b 640 465 368 -178 540 167 b 1196 -275 740 167 913 -178 z m 753 -92 l 753 131 l 526 131 l 526 -92 z m 725 971 l 878 1265 l 704 1356 l 553 1060 z "},"â":{"ha":1350,"x_min":0,"x_max":0,"o":"m 1196 -275 l 1281 -71 b 832 596 1281 -71 993 51 l 1078 596 l 1078 817 l 778 817 l 757 942 l 524 942 b 503 817 518 899 511 857 l 200 817 l 200 596 l 450 596 b 0 -71 288 51 0 -71 l 85 -275 b 640 465 368 -178 540 167 b 1196 -275 740 167 913 -178 z m 753 -92 l 753 131 l 526 131 l 526 -92 z m 825 975 l 964 1088 l 788 1304 l 788 1308 l 517 1308 l 517 1303 l 510 1308 l 322 1088 l 460 975 l 592 1129 l 700 1129 z "},"ã":{"ha":1350,"x_min":0,"x_max":0,"o":"m 1196 -275 l 1281 -71 b 832 596 1281 -71 993 51 l 1078 596 l 1078 817 l 778 817 l 757 942 l 524 942 b 503 817 518 899 511 857 l 200 817 l 200 596 l 450 596 b 0 -71 288 51 0 -71 l 85 -275 b 640 465 368 -178 540 167 b 1196 -275 740 167 913 -178 z m 753 -92 l 753 131 l 526 131 l 526 -92 z m 876 975 l 876 1196 l 756 1196 l 756 1096 l 697 1096 l 697 1276 l 397 1276 l 397 1060 l 518 1060 l 518 1156 l 576 1156 l 576 975 z "},"ä":{"ha":1350,"x_min":0,"x_max":0,"o":"m 1196 -275 l 1281 -71 b 832 596 1281 -71 993 51 l 1078 596 l 1078 817 l 778 817 l 757 942 l 524 942 b 503 817 518 899 511 857 l 200 817 l 200 596 l 450 596 b 0 -71 288 51 0 -71 l 85 -275 b 640 465 368 -178 540 167 b 1196 -275 740 167 913 -178 z m 753 -92 l 753 131 l 526 131 l 526 -92 z m 396 976 l 619 976 l 619 1189 l 396 1189 z m 658 974 l 882 974 l 882 1186 l 658 1186 z "},"å":{"ha":1350,"x_min":0,"x_max":0,"o":"m 1196 -275 l 1281 -71 b 832 596 1281 -71 993 51 l 1078 596 l 1078 817 l 778 817 l 757 942 l 524 942 b 503 817 518 899 511 857 l 200 817 l 200 596 l 450 596 b 0 -71 288 51 0 -71 l 85 -275 b 640 465 368 -178 540 167 b 1196 -275 740 167 913 -178 z m 753 -92 l 753 131 l 526 131 l 526 -92 z m 469 1288 l 469 975 l 797 975 l 797 1081 l 581 1081 l 581 1182 l 686 1182 l 686 1108 l 797 1108 l 797 1288 z "},"æ":{"ha":1661,"x_min":0,"x_max":0,"o":"m 1196 -276 l 1281 -71 b 832 594 1281 -71 993 50 l 801 719 l 1592 719 l 1592 940 l 524 940 b 503 815 518 897 511 856 l 201 815 l 201 594 l 450 594 b 0 -71 288 50 0 -71 l 85 -276 b 640 464 368 -179 542 167 b 1196 -276 740 167 913 -179 z m 1472 331 l 1472 553 l 983 553 l 983 331 z m 753 -93 l 753 129 l 526 129 l 526 -93 z "},"ç":{"ha":1104,"x_min":0,"x_max":0,"o":"m 650 -462 l 650 -200 l 478 -200 l 478 -101 b 947 -276 724 -239 947 -276 l 1000 -62 b 378 254 585 17 397 231 l 378 722 l 1035 722 l 1035 944 l 0 944 l 0 722 l 157 722 l 157 147 l 164 147 l 158 144 b 385 -44 229 69 307 7 l 385 -294 l 556 -294 l 556 -368 l 385 -368 l 385 -462 z m 1035 446 l 1035 668 l 808 668 l 808 446 z "},"è":{"ha":1104,"x_min":0,"x_max":0,"o":"m 947 -276 l 1000 -64 b 379 253 585 17 399 229 l 379 721 l 1035 721 l 1035 943 l 0 943 l 0 721 l 157 721 l 157 147 l 164 147 l 158 144 b 947 -276 482 -200 947 -276 z m 914 333 l 914 556 l 426 556 l 426 333 z m 556 971 l 729 1060 l 576 1356 l 403 1265 z "},"é":{"ha":1104,"x_min":0,"x_max":0,"o":"m 947 -276 l 1000 -64 b 379 253 585 17 399 229 l 379 721 l 1035 721 l 1035 943 l 0 943 l 0 721 l 157 721 l 157 147 l 164 147 l 158 144 b 947 -276 482 -200 947 -276 z m 914 333 l 914 556 l 426 556 l 426 333 z m 604 971 l 757 1265 l 583 1356 l 432 1060 z "},"ê":{"ha":1104,"x_min":0,"x_max":0,"o":"m 947 -276 l 1000 -64 b 379 253 585 17 399 229 l 379 721 l 1035 721 l 1035 943 l 0 943 l 0 721 l 157 721 l 157 147 l 164 147 l 158 144 b 947 -276 482 -200 947 -276 z m 914 333 l 914 556 l 426 556 l 426 333 z m 735 978 l 874 1090 l 697 1307 l 697 1311 l 426 1311 l 426 1306 l 419 1311 l 232 1090 l 369 978 l 501 1132 l 610 1132 z "},"ë":{"ha":1104,"x_min":0,"x_max":0,"o":"m 947 -276 l 1000 -64 b 379 253 585 17 399 229 l 379 721 l 1035 721 l 1035 943 l 0 943 l 0 721 l 157 721 l 157 147 l 164 147 l 158 144 b 947 -276 482 -200 947 -276 z m 914 333 l 914 556 l 426 556 l 426 333 z m 313 974 l 536 974 l 536 1186 l 313 1186 z m 575 971 l 799 971 l 799 1183 l 575 1183 z "},"ì":{"ha":561,"x_min":0,"x_max":0,"o":"m 157 -278 b 392 626 157 -278 392 -18 l 390 722 l 492 722 l 492 944 l 57 944 l 57 722 l 164 722 l 164 697 b 0 -81 164 529 149 114 z m 263 975 l 436 1064 l 283 1360 l 110 1269 z "},"í":{"ha":561,"x_min":0,"x_max":0,"o":"m 157 -278 b 392 626 157 -278 392 -18 l 390 722 l 492 722 l 492 944 l 57 944 l 57 722 l 164 722 l 164 697 b 0 -81 164 529 149 114 z m 279 979 l 432 1274 l 258 1364 l 107 1068 z "},"î":{"ha":711,"x_min":0,"x_max":0,"o":"m 157 -278 b 392 626 157 -278 392 -18 l 390 722 l 492 722 l 492 944 l 57 944 l 57 722 l 164 722 l 164 697 b 0 -81 164 529 149 114 z m 461 982 l 600 1094 l 424 1311 l 424 1315 l 153 1315 l 153 1310 l 146 1315 l -42 1094 l 96 982 l 228 1136 l 336 1136 z "},"ï":{"ha":586,"x_min":0,"x_max":0,"o":"m 157 -278 b 392 626 157 -278 392 -18 l 390 722 l 492 722 l 492 944 l 57 944 l 57 722 l 164 722 l 164 697 b 0 -81 164 529 149 114 z m 31 978 l 254 978 l 254 1190 l 31 1190 z m 293 975 l 517 975 l 517 1188 l 293 1188 z "},"ñ":{"ha":1290,"x_min":0,"x_max":0,"o":"m 158 -279 b 397 721 158 -279 389 93 l 497 721 l 497 -1 l 724 -1 l 724 943 l 22 943 l 22 721 l 176 721 b 0 -82 175 521 144 211 z m 1200 -276 l 1200 -56 l 1046 -56 b 1221 747 1047 146 1078 456 l 1064 944 b 824 -56 1064 944 832 574 l 497 -56 l 497 -276 z m 876 975 l 876 1196 l 756 1196 l 756 1096 l 697 1096 l 697 1276 l 397 1276 l 397 1060 l 518 1060 l 518 1156 l 576 1156 l 576 975 z "},"ò":{"ha":1104,"x_min":0,"x_max":0,"o":"m 1035 -279 l 1035 669 l 814 669 l 814 -17 b 379 251 529 81 396 232 l 379 721 l 1035 721 l 1035 942 l 0 942 l 0 721 l 157 721 l 157 146 l 164 146 l 160 143 b 814 -244 374 -86 651 -196 l 814 -279 z m 556 971 l 729 1060 l 576 1356 l 403 1265 z "},"ó":{"ha":1104,"x_min":0,"x_max":0,"o":"m 1035 -279 l 1035 669 l 814 669 l 814 -17 b 379 251 529 81 396 232 l 379 721 l 1035 721 l 1035 942 l 0 942 l 0 721 l 157 721 l 157 146 l 164 146 l 160 143 b 814 -244 374 -86 651 -196 l 814 -279 z m 604 971 l 757 1265 l 583 1356 l 432 1060 z "},"ô":{"ha":1104,"x_min":0,"x_max":0,"o":"m 1035 -279 l 1035 669 l 814 669 l 814 -17 b 379 251 529 81 396 232 l 379 721 l 1035 721 l 1035 942 l 0 942 l 0 721 l 157 721 l 157 146 l 164 146 l 160 143 b 814 -244 374 -86 651 -196 l 814 -279 z m 735 978 l 874 1090 l 697 1307 l 697 1311 l 426 1311 l 426 1306 l 419 1311 l 232 1090 l 369 978 l 501 1132 l 610 1132 z "},"õ":{"ha":1104,"x_min":0,"x_max":0,"o":"m 1035 -279 l 1035 669 l 814 669 l 814 -17 b 379 251 529 81 396 232 l 379 721 l 1035 721 l 1035 942 l 0 942 l 0 721 l 157 721 l 157 146 l 164 146 l 160 143 b 814 -244 374 -86 651 -196 l 814 -279 z m 760 975 l 760 1196 l 639 1196 l 639 1096 l 581 1096 l 581 1276 l 281 1276 l 281 1060 l 401 1060 l 401 1156 l 460 1156 l 460 975 z "},"ö":{"ha":1104,"x_min":0,"x_max":0,"o":"m 1035 -279 l 1035 669 l 814 669 l 814 -17 b 379 251 529 81 396 232 l 379 721 l 1035 721 l 1035 942 l 0 942 l 0 721 l 157 721 l 157 146 l 164 146 l 160 143 b 814 -244 374 -86 651 -196 l 814 -279 z m 276 975 l 500 975 l 500 1188 l 276 1188 z m 539 972 l 763 972 l 763 1185 l 539 1185 z "},"÷":{"ha":731,"x_min":0,"x_max":0,"o":"m 0 422 l 0 200 l 661 200 l 661 422 z m 219 476 l 443 476 l 443 689 l 219 689 z m 219 -72 l 443 -72 l 443 140 l 219 140 z "},"ø":{"ha":1104,"x_min":0,"x_max":0,"o":"m 461 -372 l 539 -139 b 813 -247 643 -190 740 -225 l 813 -282 l 1035 -282 l 1035 667 l 813 667 l 813 -19 b 379 249 528 78 396 229 l 379 717 l 1035 717 l 1035 939 l 868 939 l 926 1114 l 715 1183 l 635 939 l 0 939 l 0 717 l 157 717 l 157 143 l 164 143 l 160 140 b 344 -21 218 78 281 25 l 251 -303 z "},"ù":{"ha":1071,"x_min":0,"x_max":0,"o":"m 792 -276 l 843 -62 b 222 253 429 17 242 231 l 222 944 l 0 944 l 0 147 l 7 147 l 3 144 b 792 -276 325 -200 792 -276 z m 868 25 l 868 722 l 1001 722 l 1001 944 l 513 944 l 513 722 l 646 722 l 646 25 z m 489 971 l 663 1060 l 510 1356 l 336 1265 z "},"ú":{"ha":1071,"x_min":0,"x_max":0,"o":"m 792 -276 l 843 -62 b 222 253 429 17 242 231 l 222 944 l 0 944 l 0 147 l 7 147 l 3 144 b 792 -276 325 -200 792 -276 z m 868 25 l 868 722 l 1001 722 l 1001 944 l 513 944 l 513 722 l 646 722 l 646 25 z m 531 971 l 683 1265 l 510 1356 l 358 1060 z "},"û":{"ha":1071,"x_min":0,"x_max":0,"o":"m 792 -276 l 843 -62 b 222 253 429 17 242 231 l 222 944 l 0 944 l 0 147 l 7 147 l 3 144 b 792 -276 325 -200 792 -276 z m 868 25 l 868 722 l 1001 722 l 1001 944 l 513 944 l 513 722 l 646 722 l 646 25 z m 688 975 l 826 1088 l 650 1304 l 650 1308 l 379 1308 l 379 1303 l 372 1308 l 185 1088 l 322 975 l 454 1129 l 563 1129 z "},"ü":{"ha":1071,"x_min":0,"x_max":0,"o":"m 792 -276 l 843 -62 b 222 253 429 17 242 231 l 222 944 l 0 944 l 0 147 l 7 147 l 3 144 b 792 -276 325 -200 792 -276 z m 868 25 l 868 722 l 1001 722 l 1001 944 l 513 944 l 513 722 l 646 722 l 646 25 z m 276 975 l 500 975 l 500 1188 l 276 1188 z m 539 972 l 763 972 l 763 1185 l 539 1185 z "},"ý":{"ha":972,"x_min":0,"x_max":0,"o":"m 342 -275 b 549 382 486 -46 535 208 l 903 382 l 903 943 l 676 943 l 676 604 l 0 604 l 0 382 l 331 382 b 179 -92 304 72 179 -92 z m 226 663 l 226 944 l 0 944 l 0 663 z m 492 971 l 644 1265 l 471 1356 l 319 1060 z "},"ÿ":{"ha":972,"x_min":0,"x_max":0,"o":"m 342 -275 b 549 382 486 -46 535 208 l 903 382 l 903 943 l 676 943 l 676 604 l 0 604 l 0 382 l 331 382 b 179 -92 304 72 179 -92 z m 226 663 l 226 944 l 0 944 l 0 663 z m 276 975 l 500 975 l 500 1188 l 276 1188 z m 539 972 l 763 972 l 763 1185 l 539 1185 z "}}}
